<?xml version="1.0" standalone="no"?>
<!DOCTYPE svg PUBLIC "-//W3C//DTD SVG 1.1//EN" "http://www.w3.org/Graphics/SVG/1.1/DTD/svg11.dtd" >
<svg xmlns="http://www.w3.org/2000/svg">
<metadata>Generated by IcoMoon</metadata>
<defs>
<font id="icomoon" horiz-adv-x="1024">
<font-face units-per-em="1024" ascent="960" descent="-64" />
<missing-glyph horiz-adv-x="1024" />
<glyph unicode="&#x20;" horiz-adv-x="512" d="" />
<glyph unicode="&#xa01;" glyph-name="route" d="M702.706 532.632c-37.608 0.392-67.943 30.97-67.943 68.633 0 37.907 30.73 68.636 68.636 68.636s68.634-30.728 68.636-68.633v0c-0.392-37.99-31.28-68.636-69.326-68.636-0.001 0-0.002 0-0.004 0v0zM671.607 600.674c0-0.059-0.001-0.128-0.001-0.198 0-17.504 14.19-31.694 31.694-31.694s31.694 14.19 31.694 31.694c0 17.504-14.189 31.693-31.693 31.694v0c-0.029 0-0.064 0-0.099 0-17.414 0-31.538-14.089-31.594-31.49v-0.005zM320.997 226.194c-37.608 0.392-67.943 30.97-67.943 68.633 0 37.907 30.73 68.636 68.636 68.636s68.634-30.728 68.636-68.633v0c-0.392-37.99-31.28-68.636-69.326-68.636-0.001 0-0.002 0-0.004 0v0zM320.997 326.326c-17.145-0.112-31-14.037-31-31.198 0-17.23 13.968-31.198 31.198-31.198s31.198 13.968 31.198 31.198v0c-0.056 17.243-14.047 31.199-31.297 31.199-0.035 0-0.070 0-0.105 0h0.005zM601.089 582.351c6.636 0 12.479 13.965 12.479 20.601s-5.844 20.601-12.479 20.601h-52.592c-6.636 0-12.281-13.965-12.281-20.601s5.546-20.601 12.281-20.601zM543.446 476.079h-68.141c-2.674 0-66.16-8.419-66.16 49.521 0 55.365 58.039 57.247 64.675 57.247h19.808c6.339 0 18.521 1.189 18.521 17.927 0.052 0.563 0.082 1.217 0.082 1.879 0 10.851-8.041 19.824-18.49 21.284l-0.113 0.013h-19.808c-30.703 0-106.174-12.182-106.174-98.448s74.48-86.563 106.174-90.228h77.748c2.674 0 66.16-8.914 66.16-66.457 0-55.266-58.039-57.247-64.675-57.247h-181.050c-0.030 0-0.064 0-0.099 0-6.619 0-11.984-5.365-11.984-11.984 0-0.035 0-0.070 0-0.105v0.005c0-6.636 5.447-29.713 12.083-29.713h198.778c30.802 0 89.138 19.808 89.138 98.448s-58.831 107.758-106.471 107.857z" />
<glyph unicode="&#xa02;" glyph-name="order" d="M685.275 680.799h-29.713c-8.32 0-18.026-5.15-18.026-13.47 1.427-8.945 8.863-15.77 17.979-16.241l0.047-0.002h29.713c0.456 0.026 0.989 0.041 1.526 0.041 15.863 0 28.722-12.859 28.722-28.722 0-0.537-0.015-1.070-0.044-1.6l0.003 0.074v-347.837c0.026-0.456 0.041-0.989 0.041-1.526 0-15.863-12.859-28.722-28.722-28.722-0.537 0-1.070 0.015-1.6 0.044l0.074-0.003h-325.255c-18.026 0-37.933 12.182-37.933 30.208v347.342c-0.045 0.605-0.071 1.311-0.071 2.023 0 15.863 12.859 28.722 28.722 28.722 0.548 0 1.092-0.015 1.632-0.046l-0.075 0.003h37.933c8.32 0 11.588 8.32 11.588 16.738s-3.268 12.975-11.588 12.975h-37.933c-42.39 0-60.416-26.345-60.416-61.109v-343.974c0-37.339 22.483-63.684 63.684-63.684h326.84c41.103 0 63.684 21.888 63.684 63.684v344.074c0 34.764-21.195 61.109-60.416 61.109zM390.227 544.517c0.11-8.488 6.962-15.34 15.44-15.451h227.015c8.533 0 15.451 6.917 15.451 15.451s-6.917 15.451-15.451 15.451h-227.005c-8.488-0.11-15.34-6.962-15.451-15.44v-0.010zM631.99 476.376h-226.312c-8.533 0-15.451-6.917-15.451-15.451s6.917-15.451 15.451-15.451h227.005c8.488 0.11 15.34 6.962 15.451 15.44v0.010c-0.431 8.562-7.429 15.353-16.035 15.451h-0.010zM631.99 385.752h-226.312c-8.533 0-15.451-6.917-15.451-15.451s6.917-15.451 15.451-15.451h227.005c8.488 0.11 15.34 6.962 15.451 15.44v0.010c-0.431 8.562-7.429 15.353-16.035 15.451h-0.010zM466.787 643.262h105.48c12.771 2.122 22.389 13.088 22.389 26.301 0 13.424-9.927 24.528-22.841 26.373l-0.142 0.017h-104.886c-13.201-1.668-23.307-12.827-23.307-26.345s10.106-24.677 23.176-26.332l0.131-0.014z" />
<glyph unicode="&#xa03;" glyph-name="cargo" d="M732.122 611.47l-212.050 86.167c-4.43 1.56-9.538 2.462-14.856 2.462s-10.426-0.902-15.179-2.56l0.323 0.098-215.417-86.167c-13.487-5.258-22.92-18.036-23.176-33.049v-251.797c-0.004-0.193-0.006-0.421-0.006-0.649 0-14.056 7.957-26.254 19.613-32.335l0.201-0.096 215.615-115.88c3.268-6.636 9.904-6.636 16.54-6.636 1.129-0.182 2.431-0.287 3.757-0.287 4.723 0 9.137 1.322 12.892 3.617l-0.109-0.062 215.318 115.88c11.859 6.203 19.813 18.418 19.813 32.491 0 0.207-0.002 0.414-0.005 0.621v-0.031 255.232c-0.344 15.017-9.794 27.743-23.029 32.897l-0.246 0.084zM500.263 674.56h6.735l46.352-16.54-205.513-96.071-52.988 29.713 205.414 82.799zM490.359 200.84l-208.782 112.611c-3.268 0-6.636 6.636-6.636 9.904v251.865l56.355-29.713v-99.042c0-3.268 3.268-6.636 6.636-9.904l66.259-33.080c2.069-1.674 4.733-2.688 7.633-2.688 6.728 0 12.182 5.454 12.182 12.182 0 0.144-0.003 0.288-0.007 0.431l0.001-0.021v82.304l66.259-32.783v-261.67zM503.532 482.714l-62.991 33.080 205.117 102.41 66.557-26.543-208.682-108.947zM728.754 324.246c0-3.268-3.268-6.636-6.636-9.904l-208.682-108.947v257.51l215.318 112.611v-251.766z" />
<glyph unicode="&#xa04;" glyph-name="truck" d="M342.39 559.67l-124.199-124.298v-113.701c0.056-19.669 15.986-35.599 35.65-35.655h23.28c9.194-28.242 35.286-48.294 66.061-48.294s56.867 20.052 65.923 47.803l0.138 0.49h38.329c0.007 0 0.015 0 0.023 0 8.824 0 16.896 3.223 23.101 8.557l-0.047-0.039c5.957-4.693 13.569-7.527 21.843-7.527 0.016 0 0.032 0 0.048 0h65.465c8.895-28.737 35.231-49.251 66.358-49.251s57.464 20.514 66.227 48.76l0.131 0.491h45.659c19.669 0.056 35.599 15.986 35.655 35.65v281.286s-1.189 37.24-37.24 37.24h-242.258c-19.669-0.056-35.599-15.986-35.655-35.65v-46.753c-2.731 0.755-5.867 1.189-9.104 1.189-0.038 0-0.075 0-0.113 0h-105.276zM624.364 264.029c-23.849 0-43.183 19.333-43.183 43.183s19.333 43.183 43.183 43.183c23.849 0 43.183-19.333 43.183-43.183v0c0-23.849-19.333-43.183-43.183-43.183v0zM486.298 337.815v252.162c0.056 9.823 8.004 17.772 17.822 17.828h217.898c0.27 0.013 0.586 0.021 0.904 0.021 10.94 0 19.808-8.869 19.808-19.808 0-0.251-0.005-0.501-0.014-0.75l0.001 0.036c0-20.601 0-249.587 0-249.587-0.056-9.823-8.004-17.772-17.822-17.828h-32.293c-6.132 32.534-34.326 56.814-68.191 56.814s-62.059-24.281-68.123-56.383l-0.068-0.431h-52.096c-9.823 0.056-17.772 8.004-17.828 17.822v0.005zM267.514 446.762l41.4 41.4h93.892c7.33 0 13.272-5.942 13.272-13.272v0-24.364c0-7.33-5.942-13.272-13.272-13.272v0h-122.516c-5.944 0.009-10.971 3.924-12.652 9.315l-0.025 0.094zM343.083 264.029c-23.849 0-43.183 19.333-43.183 43.183s19.333 43.183 43.183 43.183c23.849 0 43.183-19.333 43.183-43.183v0c0-23.849-19.333-43.183-43.183-43.183v0zM246.121 331.179v94.189l3.962 3.962c4.767-7.469 13.002-12.356 22.38-12.38h135.494c0.060 0 0.13-0.001 0.201-0.001 14.52 0 26.318 11.66 26.54 26.127v38.945c-0.056 14.617-11.918 26.445-26.543 26.445-0.070 0-0.139 0-0.209-0.001h-79.223l23.77 23.77h87.454c7.28-0.044 13.528-4.421 16.297-10.681l0.045-0.115v-197.194c-2.814-6.374-9.062-10.751-16.336-10.796h-27.639c-3.115 35.687-32.853 63.476-69.082 63.476s-65.968-27.789-69.064-63.214l-0.018-0.261h-9.904c-9.823 0.056-17.772 8.004-17.828 17.822v0.005z" />
<glyph unicode="&#xa05;" glyph-name="position" d="M508.682 547.191c-47.144-1-84.978-39.453-84.978-86.743 0-47.917 38.844-86.761 86.761-86.761 47.91 0 86.751 38.834 86.761 86.742v0.001c-0.557 48.038-39.629 86.765-87.746 86.765-0.28 0-0.561-0.001-0.841-0.004h0.043zM508.682 402.589c-31.255 0.884-56.256 26.432-56.256 57.819 0 31.945 25.896 57.841 57.841 57.841 31.937 0 57.828-25.884 57.841-57.818v-0.001c-0.388-32.031-26.444-57.848-58.53-57.848-0.315 0-0.629 0.002-0.943 0.007l0.047-0.001zM677.054 588.69c-2.773 3.863-5.546 7.626-8.617 11.192l-2.080 2.377c-3.169 3.665-6.438 7.131-9.904 10.598l-4.655 4.556c-2.773 2.674-5.645 5.15-8.617 7.626l-1.882 1.486c-2.478 1.892-5.619 3.031-9.027 3.031-4.709 0-8.909-2.176-11.651-5.578l-0.022-0.029c-1.937-2.378-3.111-5.446-3.111-8.787 0-4.466 2.096-8.442 5.359-10.998l0.030-0.023 2.080-1.882 4.754-4.259q3.566-3.268 6.933-6.735l5.249-5.645 4.061-4.655c24.567-29.288 39.522-67.362 39.617-108.926v-0.021c0-83.889-137.075-229.085-175.602-266.325-57.742 56.751-178.276 190.855-178.276 266.325 1.115 96.129 79.303 173.628 175.591 173.628 0.526 0 1.052-0.002 1.577-0.007l-0.080 0.001c5.348 0 10.697 0 15.946-0.792h2.971c11.136-1.193 21.221-3.215 30.957-6.055l-1.244 0.311c3.466-1.089 4.556-1.387 8.121-2.773h0.891c1.402-0.487 3.017-0.768 4.698-0.768 6.104 0 11.343 3.706 13.588 8.991l0.036 0.097c0.626 1.553 0.99 3.353 0.99 5.239 0 6.154-3.87 11.403-9.309 13.447l-0.099 0.033c-4.16 1.585-8.221 2.971-12.38 4.16-9.456 2.956-20.507 5.131-31.901 6.101l-0.585 0.040h-8.32c-4.754 0-9.904 0.693-14.262 0.693-0.594 0.006-1.295 0.010-1.997 0.010-112.217 0-203.356-90.244-204.802-202.118l-0.001-0.136c0-108.947 189.369-289.105 197.491-297.127 2.662-2.545 6.277-4.111 10.259-4.111 2.396 0 4.66 0.567 6.664 1.575l-0.085-0.039c8.221 4.061 198.877 188.775 198.877 299.207 0 0.011 0 0.025 0 0.038 0 43.762-14.191 84.209-38.222 116.991l0.388-0.555z" />
<glyph unicode="&#xb01;" glyph-name="configuration" d="M571.395 555.763l30.449 31.828c7.436-2.74 16.023-4.325 24.98-4.325 41.038 0 74.306 33.268 74.306 74.306 0 11.687-2.698 22.744-7.505 32.582l0.194-0.439-33.081-33.081c-4.621-6.114-11.878-10.024-20.049-10.024-13.841 0-25.061 11.22-25.061 25.061 0 8.171 3.91 15.428 9.961 20.003l0.063 0.046 33.081 33.081c-9.329 4.535-20.294 7.186-31.878 7.186-41.038 0-74.306-33.268-74.306-74.306 0-8.677 1.487-17.006 4.221-24.747l-0.16 0.52-36.715-34.835c-3.974 1.155-8.54 1.819-13.26 1.819-10.457 0-20.152-3.259-28.126-8.817l0.161 0.106-82.326 85.208 12.531 12.531c1.314 1.458 2.118 3.399 2.118 5.527 0 2.937-1.531 5.517-3.839 6.984l-0.034 0.020-50.122 28.946c-1.183 0.709-2.61 1.128-4.135 1.128v0c-0.025 0-0.054 0-0.083 0-2.263 0-4.314-0.909-5.807-2.382l-16.539-16.539c-1.472-1.492-2.381-3.543-2.381-5.807 0-0.029 0-0.058 0-0.087v0.004c0-1.525 0.419-2.952 1.148-4.172l-0.021 0.037 28.946-50.122c1.495-2.296 4.049-3.793 6.953-3.793 2.152 0 4.112 0.822 5.584 2.169l12.525 12.525 82.201-84.957c-6.010-8.167-9.618-18.424-9.618-29.524 0-3.476 0.354-6.869 1.027-10.146l-0.056 0.324-116.284-109.141c-7.488-7.488-12.119-17.833-12.119-29.259 0-22.853 18.526-41.378 41.378-41.378 11.426 0 21.771 4.631 29.259 12.119v0l104.38 111.146 108.64-108.766c8.272-6.258 18.733-10.024 30.073-10.024 27.682 0 50.122 22.441 50.122 50.122 0 11.34-3.766 21.801-10.116 30.2l0.091-0.126-111.146 111.146zM367.773 671.045l-20.3 34.835 7.518 7.518 34.835-20.3-22.054-22.054zM619.763 715.027l-8.646-8.646c-8.242-8.242-13.339-19.627-13.339-32.204 0-25.153 20.39-45.543 45.543-45.543 12.576 0 23.962 5.098 32.204 13.339l8.646 8.646c-3.557-28.839-27.884-50.952-57.385-51h-0.005c-7.635 0.016-14.911 1.534-21.555 4.273l0.378-0.138-5.138 2.256c-10.488 5.578-18.857 13.947-24.283 24.122l-0.152 0.313c-0.877 1.629-1.629 3.383-2.256 5.138-2.595 6.266-4.112 13.541-4.135 21.168v0.009c0.047 29.506 22.161 53.833 50.718 57.362l0.281 0.028zM564.628 616.787c5.682-8.522 12.78-15.62 21.028-21.13l0.274-0.172-26.44-27.943-17.543 17.543c-1.709 1.683-3.549 3.246-5.5 4.665l-0.139 0.096 28.319 26.941zM387.697 383.718c-4.621-6.114-11.878-10.024-20.049-10.024-13.841 0-25.061 11.22-25.061 25.061 0 8.171 3.91 15.428 9.961 20.003l0.063 0.046 112.775 104.881c2.034-3.212 4.267-6.002 6.769-8.524l20.171-20.171-104.004-111.272zM647.957 376.45c-0.039 0-0.086 0-0.133 0-9.099 0-17.336 3.687-23.299 9.649l-111.522 111.522-9.649 9.398-20.049 19.798c-2.423 2.396-4.472 5.165-6.054 8.214l-0.086 0.182c-0.489 0.881-0.994 1.954-1.434 3.059l-0.070 0.199c0 1.002-0.627 2.005-0.877 3.007v0.752q0 1.378 0 2.882v0.877c-0.033 0.562-0.051 1.218-0.051 1.88s0.019 1.318 0.056 1.97l-0.004-0.090c0 0.877 0 1.754 0 2.631s0 1.504 0 2.256c2.011 15.223 14.128 27.083 29.303 28.683l0.144 0.012h7.644l3.634-0.752c3.053-0.896 5.713-2.091 8.167-3.592l-0.147 0.084c2.317-1.463 4.328-3.076 6.14-4.887l141.094-141.219c6.011-5.99 9.73-14.277 9.73-23.432 0-18.27-14.811-33.081-33.081-33.081-0.029 0-0.057 0-0.086 0h0.004zM653.846 415.546v0c1.507-1.507 2.439-3.589 2.439-5.889 0-4.6-3.729-8.329-8.329-8.329-2.3 0-4.382 0.932-5.889 2.439l-82.714 82.712c-1.791 1.517-2.929 3.783-2.929 6.314 0 4.568 3.703 8.27 8.27 8.27 2.531 0 4.797-1.137 6.324-2.941l82.702-82.702zM370.78 409.656v0c4.568 0 8.27-3.703 8.27-8.27v0c0-4.568-3.703-8.27-8.27-8.27s-8.27 3.703-8.27 8.27c0 4.568 3.703 8.27 8.27 8.27z" />
<glyph unicode="&#xb02;" glyph-name="mode" d="M488.818 433.339h-112.775c-44.983 0-81.449 36.466-81.449 81.449s36.466 81.449 81.449 81.449v0h17.668c0.032 0 0.071 0 0.109 0 3.745 0 7.106 1.643 9.402 4.247l0.012 0.014c2.067 2.228 3.335 5.222 3.335 8.512 0 0.489-0.028 0.971-0.082 1.445l0.005-0.058c0 4.135 0 8.27 0 12.531 0.229 69.723 56.803 126.157 126.558 126.157 20.647 0 40.139-4.944 57.357-13.713l-0.718 0.332c17.344-8.876 31.857-20.945 43.268-35.554l0.213-0.283c2.384-3.062 6.070-5.014 10.212-5.014 7.129 0 12.908 5.779 12.908 12.908 0 2.987-1.014 5.736-2.717 7.923l0.022-0.029c-13.98 17.897-31.417 32.411-51.387 42.7l-0.866 0.405c-19.762 10.033-43.090 15.911-67.791 15.911-84.020 0-152.156-68.004-152.371-151.973v-0.648h-5.012c-59.204 0-107.199-47.995-107.199-107.199s47.995-107.199 107.199-107.199v0h112.775c7.128 0 12.907 5.778 12.907 12.907s-5.778 12.907-12.907 12.907v0 0zM587.058 599.745c-27.682 0-50.122-22.441-50.122-50.122s22.441-50.122 50.122-50.122c27.682 0 50.122 22.441 50.122 50.122v0c0 27.682-22.441 50.122-50.122 50.122v0zM587.058 522.933c-14.464 0-26.189 11.725-26.189 26.189s11.725 26.189 26.189 26.189c14.464 0 26.189-11.725 26.189-26.189v0c0-14.464-11.725-26.189-26.189-26.189v0 0zM698.33 513.535v72.928c8.897 5.053 14.801 14.464 14.801 25.254 0 15.986-12.959 28.946-28.946 28.946-7.733 0-14.758-3.033-19.95-7.973l0.012 0.011-47.616 27.567s0 1.253 0 1.88c0 15.986-12.959 28.946-28.946 28.946s-28.946-12.959-28.946-28.946v0s0-1.253 0-1.88l-48.368-27.943c-5.204 5.048-12.311 8.16-20.145 8.16-15.986 0-28.946-12.959-28.946-28.946 0-11.123 6.274-20.781 15.476-25.627l0.158-0.076v-71.675c-9.574-4.855-16.021-14.624-16.021-25.9 0-15.986 12.959-28.946 28.946-28.946 7.418 0 14.184 2.79 19.306 7.379l-0.027-0.024 50.122-28.57s0-1.253 0-1.88c0-15.986 12.959-28.946 28.946-28.946s28.946 12.959 28.946 28.946v0s0 1.253 0 1.88l48.869 28.194c5.043-4.375 11.671-7.040 18.921-7.040 15.986 0 28.946 12.959 28.946 28.946 0 0.008 0 0.016 0 0.025v-0.001c-0.070 10.744-6.007 20.085-14.766 24.986l-0.146 0.075zM655.977 489.852l-51.626-29.823c-4.513 3.023-10.066 4.825-16.039 4.825s-11.526-1.802-16.145-4.891l0.105 0.066-53.255 30.7c-1 10.248-7.188 18.853-15.872 23.231l-0.167 0.076v71.675c8.303 4.159 14.248 11.966 15.766 21.26l0.023 0.167 53.13 30.7c4.513-3.023 10.066-4.825 16.039-4.825s11.526 1.802 16.145 4.891l-0.105-0.066 51.877-29.948c1.418-10.187 7.941-18.58 16.858-22.606l0.183-0.074v-70.673c-9.832-4.418-16.683-13.871-17.289-24.987l-0.003-0.074z" />
<glyph unicode="&#xb03;" glyph-name="output" d="M514.381 581.576c26.412 1.569 47.237 23.372 47.237 50.039 0 27.682-22.441 50.122-50.122 50.122s-50.122-22.441-50.122-50.122c0-0.191 0.001-0.382 0.003-0.572v0.029c1.026-27.565 23.62-49.523 51.342-49.523 0.585 0 1.167 0.010 1.747 0.029l-0.084-0.002zM514.381 656.76c13.179-0.816 23.557-11.704 23.557-25.016 0-13.841-11.22-25.061-25.061-25.061-13.825 0-25.035 11.195-25.061 25.014v0.002c0.551 13.959 12.001 25.066 26.045 25.066 0.183 0 0.365-0.002 0.548-0.006h-0.027zM463.005 506.768c11.741-13.853 24.464-26.178 38.294-37.169l0.551-0.423 12.531-9.649 12.531 9.649c14.289 11.466 26.966 23.785 38.394 37.2l0.326 0.392c25.061 31.953 57.265 78.442 64.533 118.539 0.77 4.519 1.267 9.799 1.377 15.174l0.002 0.113c0.001 0.19 0.002 0.415 0.002 0.64 0 31.172-13.454 59.201-34.872 78.598l-0.090 0.080c-21.62 19.654-50.473 31.688-82.138 31.688s-60.519-12.034-82.238-31.778l0.1 0.090c-21.663-19.636-35.212-47.883-35.212-79.294 0-0.185 0-0.37 0.001-0.555v0.029c0.138-5.336 0.634-10.439 1.467-15.427l-0.088 0.641c7.769-42.98 43.606-92.726 64.533-118.915zM514.381 720.666c0.752 0.024 1.636 0.037 2.523 0.037 46.455 0 84.228-37.176 85.189-83.401l0.001-0.090c-0.091-4.014-0.452-7.865-1.067-11.631l0.064 0.479c-5.764-32.329-33.081-72.427-55.009-100.245-0.207-0.34-0.457-0.629-0.746-0.873l-0.005-0.004c-9.399-10.958-19.487-20.768-30.392-29.608l-0.433-0.34c-11.614 9.252-21.911 19.191-31.198 30.021l-0.254 0.303c-0.244 0.252-0.453 0.541-0.617 0.857l-0.010 0.020c-21.929 27.191-49.245 67.415-55.009 100.245-0.593 3.267-0.998 7.11-1.124 11.023l-0.003 0.129c1.038 46.463 38.949 83.731 85.564 83.731 0.756 0 1.51-0.010 2.261-0.029l-0.111 0.002zM387.947 358.156h289.457c1.366-0.16 2.949-0.251 4.553-0.251 22.907 0 41.476 18.57 41.476 41.476s-18.57 41.476-41.476 41.476c-1.604 0-3.187-0.091-4.743-0.268l0.19 0.018h-330.808c-0.787-0.159-1.691-0.251-2.616-0.251-7.613 0-13.784 6.171-13.784 13.784s6.171 13.784 13.784 13.784c0.926 0 1.83-0.091 2.704-0.265l-0.088 0.015h51.751c0.395-0.040 0.854-0.063 1.319-0.063 7.682 0 13.909 6.227 13.909 13.909s-6.227 13.909-13.909 13.909c-0.464 0-0.923-0.023-1.376-0.067l0.057 0.005h-51.751c-1.366 0.16-2.949 0.251-4.553 0.251-22.907 0-41.476-18.57-41.476-41.476s18.57-41.476 41.476-41.476c1.604 0 3.187 0.091 4.743 0.268l-0.19-0.018h330.808c0.787 0.159 1.691 0.251 2.616 0.251 7.613 0 13.784-6.171 13.784-13.784s-6.171-13.784-13.784-13.784c-0.926 0-1.83 0.091-2.704 0.265l0.088-0.015h-289.457c-0.395 0.040-0.854 0.063-1.319 0.063-7.682 0-13.909-6.227-13.909-13.909s6.227-13.909 13.909-13.909c0.464 0 0.923 0.023 1.376 0.067l-0.057-0.005z" />
<glyph unicode="&#xb04;" glyph-name="arrows" horiz-adv-x="672" d="M294.757 911.462c0-26.807 21.731-48.538 48.538-48.538s48.538 21.731 48.538 48.538c0 26.807-21.731 48.538-48.538 48.538v0c-26.807 0-48.538-21.731-48.538-48.538v0zM294.757 720.106c0-26.807 21.731-48.538 48.538-48.538s48.538 21.731 48.538 48.538c0 26.807-21.731 48.538-48.538 48.538v0c-26.807 0-48.538-21.731-48.538-48.538v0zM294.757 528.602c0-26.807 21.731-48.538 48.538-48.538s48.538 21.731 48.538 48.538c0 26.807-21.731 48.538-48.538 48.538v0c-26.807 0-48.538-21.731-48.538-48.538v0zM294.757 337.099c0-26.807 21.731-48.538 48.538-48.538s48.538 21.731 48.538 48.538c0 26.807-21.731 48.538-48.538 48.538v0c-26.807 0-48.538-21.731-48.538-48.538v0zM310.053-55.91l-301.228 301.964c-13.826 13.826-9.708 40.448 9.266 58.834s45.449 23.092 58.834 9.266l259.309-259.309 259.309 259.309c13.826 13.826 40.448 9.708 58.834-9.266s23.092-45.449 9.266-58.834l-301.817-301.964c-7.315-4.94-16.331-7.885-26.034-7.885s-18.719 2.946-26.201 7.991l0.167-0.106z" />
<glyph unicode="&#xc01;" glyph-name="newproject" d="M997.99 89.6h-128v-128c0-14.138-11.462-25.6-25.6-25.6v0h-51.2c-14.138 0-25.6 11.462-25.6 25.6v0 128h-128c-14.138 0-25.6 11.462-25.6 25.6v0 51.2c0 14.138 11.462 25.6 25.6 25.6v0h128v128c0 14.138 11.462 25.6 25.6 25.6v0h51.2c14.138 0 25.6-11.462 25.6-25.6v0-128h128c14.138 0 25.6-11.462 25.6-25.6v0-51.2c0-14.138-11.462-25.6-25.6-25.6v0zM999.117 345.6h-54.579c-21.606 0-23.347 29.184-23.347 29.184v73.216h-819.2v-307.2s1.741-102.4 102.4-102.4h384s26.010-1.843 26.010-23.245v-52.838c-0.195-14.031-11.173-25.437-25.011-26.313l-0.077-0.004h-384.512c-113.108 0-204.8 91.692-204.8 204.8v0 717.722s-1.536 101.478 102.4 101.478h102.4c101.376 0 102.4-102.4 102.4-102.4h512c113.108 0 204.8-91.692 204.8-204.8v0-278.426c-0.058-14.427-10.539-26.389-24.3-28.75l-0.174-0.025zM921.19 652.8c0 99.021-102.4 102.4-102.4 102.4h-614.4l-0.922 51.2s3.072 51.2-50.483 51.2-50.381-52.122-50.381-52.122l-0.614-50.278v-204.8h819.2v102.4zM332.39 704h51.2c14.138 0 25.6-11.462 25.6-25.6v0-51.2c0-14.138-11.462-25.6-25.6-25.6v0h-51.2c-14.138 0-25.6 11.462-25.6 25.6v0 51.2c0 14.138 11.462 25.6 25.6 25.6v0zM537.19 704h51.2c14.138 0 25.6-11.462 25.6-25.6v0-51.2c0-14.138-11.462-25.6-25.6-25.6v0h-51.2c-14.138 0-25.6 11.462-25.6 25.6v0 51.2c0 14.138 11.462 25.6 25.6 25.6v0zM741.99 704h51.2c14.138 0 25.6-11.462 25.6-25.6v0-51.2c0-14.138-11.462-25.6-25.6-25.6v0h-51.2c-14.138 0-25.6 11.462-25.6 25.6v0 51.2c0 14.138 11.462 25.6 25.6 25.6v0z" />
<glyph unicode="&#xc02;" glyph-name="lowcost" horiz-adv-x="980" d="M312.197 284.57h-122.88c-18.097 0-32.768-14.671-32.768-32.768s14.671-32.768 32.768-32.768v0h122.88c18.097 0 32.768 14.671 32.768 32.768s-14.671 32.768-32.768 32.768v0zM559.268 720.302c-18.097 0-32.768-14.671-32.768-32.768s14.671-32.768 32.768-32.768v0h122.88c18.097 0 32.768 14.671 32.768 32.768s-14.671 32.768-32.768 32.768v0zM409.6 88.617h-278.528c-8.192 0-43.909 31.048-43.909 42.025v696.32c8.359 20.717 23.708 37.155 43.064 46.709l0.517 0.231s589.824 2.458 608.42 0 45.384-35.963 45.384-46.94v-290.734l11.96-2.458c29.765-9.786 54.635-20.129 78.564-32.075l-3.361 1.519v347.832c0 60.457-36.864 108.954-95.846 108.954h-668.959c-59.182-0.646-106.909-48.773-106.909-108.046 0-0.319 0.001-0.638 0.004-0.956v0.049-753.664c0-60.457 47.35-95.846 106.906-95.846h349.798c-14.898 21.639-29.609 46.613-42.582 72.605l-1.655 3.662-2.867 10.813zM413.942 219.689c0.093-156.38 126.886-283.116 283.279-283.116 156.451 0 283.279 126.828 283.279 283.279s-126.828 283.279-283.279 283.279v0c-156.396-0.279-283.093-127.034-283.279-283.425v-0.018zM588.431 197.652h217.907v43.581h-217.907v-43.581zM501.105 219.689c0.28 108.101 87.977 195.625 196.116 195.625 108.312 0 196.116-87.804 196.116-196.116s-87.804-196.116-196.116-196.116v0c-108.372 0.28-196.116 88.197-196.116 196.607 0 0 0 0 0 0v0zM791.265 243.036v0zM268.288 499.528c4.26 0 5.816 1.311 5.816 5.898 0 19.497 0 39.24 0 58.737 0 6.062-2.867 6.226-7.209 6.062-27.034 0-52.92-4.751-80.855-4.751-23.101 0-33.833 19.988-26.706 42.68 1.944 6.404 4.737 11.983 8.309 16.966l-0.117-0.172c4.040 5.977 10.793 9.855 18.451 9.855 0.368 0 0.734-0.009 1.097-0.027l-0.051 0.002c26.706-0.492 53.412 0 80.036 0 5.325 0 6.554 1.556 7.045 7.127 0.173 1.36 0.272 2.934 0.272 4.531 0 10.492-4.269 19.987-11.166 26.842l-0.002 0.002c-23.675 25.395-46.367 52.019-69.222 78.234-9.585 10.977-16.384 23.183-11.878 38.748 2.292 10.057 11.159 17.449 21.752 17.449 1.905 0 3.753-0.239 5.518-0.689l-0.154 0.033c11.767-2.656 21.783-8.914 29.1-17.536l0.063-0.077c21.217-23.511 42.68-46.858 63.734-70.451 3.85-4.26 5.652-4.751 9.912-0.492 24.576 25.068 50.053 49.644 75.203 74.301 6.053 7.248 15.093 11.826 25.203 11.826 2.36 0 4.661-0.249 6.879-0.723l-0.215 0.038c11.53-2.485 20.045-12.594 20.045-24.693 0-5.665-1.867-10.893-5.019-15.104l0.047 0.066c-3.011-4.576-6.221-8.567-9.769-12.227l0.020 0.021c-26.87-29.573-53.494-58.573-80.937-86.917-8.192-8.192-4.424-17.777-4.588-26.788 0-3.686 4.424-2.376 7.045-2.376 25.149 0 50.299 0 75.53 0 19.858-0.322 35.837-16.474 35.881-36.368v-0.004c0.177-1.108 0.278-2.386 0.278-3.688 0-13.573-11.003-24.576-24.576-24.576-0.098 0-0.196 0.001-0.293 0.002h0.015c-28.508-0.819-56.852-0.983-85.443-0.819-6.881 0-9.175-1.72-9.011-9.175 0.492-17.94 0-36.045 0-53.985 0-5.571 1.393-7.291 6.717-7.291 24.576 0 49.152 0 73.728 0 3.031 0 6.062 0 9.175 0 0.421 0.023 0.914 0.036 1.41 0.036 11.168 0 20.778-6.671 25.063-16.246l0.070-0.174c1.818-4.040 2.878-8.758 2.878-13.723 0-7.811-2.622-15.010-7.034-20.765l0.060 0.082c-4.465-6.671-11.971-11.004-20.488-11.004-0.4 0-0.799 0.010-1.194 0.029l0.056-0.002c-27.771 0-55.378 0-83.149 0-6.717 0-9.011-1.393-8.192-8.847 0.436-4.808 0.685-10.399 0.685-16.048 0-3-0.070-5.983-0.209-8.948l0.016 0.42c0.007-0.254 0.011-0.553 0.011-0.853 0-17.13-13.482-31.112-30.414-31.913l-0.072-0.003c-0.884-0.091-1.911-0.143-2.949-0.143-16.823 0-30.462 13.632-30.474 30.452v0.001c-0.737 9.667-0.901 19.497-0.737 29.327 0 5.407-1.638 6.636-6.554 6.636-27.935 0-55.951 0-83.886 0-16.761 0.032-30.335 13.627-30.335 30.392 0 0.432 0.009 0.862 0.027 1.29l-0.002-0.061c-0.005 0.196-0.007 0.427-0.007 0.658 0 16.288 13.204 29.491 29.491 29.491 0.147 0 0.293-0.001 0.439-0.003h41.593c14.828 0 29.409 0 44.237 0zM588.268 240.988h217.825v-43.581h-217.825v43.581z" />
<glyph unicode="&#xc03;" glyph-name="shortmileage" d="M788.99 490.906h-554.443c-1.108-0.030-2.411-0.046-3.719-0.046-82.451 0-149.291 66.84-149.291 149.291s66.84 149.291 149.291 149.291c1.308 0 2.612-0.017 3.912-0.050l-0.192 0.004h566.582v-85.256l222.407 127.977-222.407 127.884v-85.256h-566.582c-129.537 0-234.547-105.010-234.547-234.547s105.010-234.547 234.547-234.547h554.443c80.835-2.078 145.572-68.101 145.572-149.245s-64.736-147.166-145.379-149.241l-0.192-0.004h-564.080v85.256l-223.983-131.313 223.983-125.104v85.719h564.080c129.537 0 234.547 105.010 234.547 234.547s-105.010 234.547-234.547 234.547v0z" />
<glyph unicode="&#xc04;" glyph-name="highweight" horiz-adv-x="1407" d="M1091.588 753.382h-267.388c-8.372-0.013-16.469-1.166-24.151-3.313l0.633 0.151v118.576c-0.112 49.998-40.613 90.499-90.601 90.612l-614.727 0.494c-92.094 0-95.453-94.268-95.453-94.268v-714.517c0.112-49.998 40.613-90.499 90.601-90.612h116.314c22.716-72.846 89.553-124.805 168.526-124.805s145.809 51.959 168.189 123.556l0.336 1.248h166.302c0 0 0.001 0 0.001 0 21.041 0 40.395 7.219 55.722 19.315l-0.191-0.145c15.629-13.432 36.105-21.618 58.493-21.64h97.434c23.264-71.94 89.654-123.055 167.982-123.055s144.718 51.115 167.633 121.808l0.349 1.247h59.288c49.976 0.168 90.444 40.636 90.612 90.595v289.143l-315.905 315.609zM375.292 2.402v0c-60.631 0-109.781 49.151-109.781 109.781s49.151 109.781 109.781 109.781c60.631 0 109.781-49.151 109.781-109.781v0c0-60.631-49.151-109.781-109.781-109.781v0zM725.98 190.147v0c-0.167-24.907-20.341-45.046-45.246-45.158h-132.223c-15.846 82.362-87.34 143.736-173.17 143.736s-157.324-61.374-172.992-142.629l-0.178-1.106h-82.015c-24.949 0.112-45.145 20.307-45.256 45.246v0.011s-0.889 581.515-0.889 633.886 52.667 52.074 52.667 52.074h554.341c24.949-0.112 45.145-20.307 45.256-45.246v-640.419zM1281.606 466.824v0c-4.345-13.895-17.058-23.819-32.103-23.913h-311.667c-18.532 0.056-33.54 15.064-33.596 33.591v61.664c0.056 18.532 15.064 33.54 33.591 33.596h238.54l105.236-105.236zM1089.513 2.402v0c-60.631 0-109.781 49.151-109.781 109.781s49.151 109.781 109.781 109.781c60.631 0 109.781-49.151 109.781-109.781v0c0-60.596-49.095-109.725-109.677-109.781h-0.005zM1335.755 173.053v0c-0.112-24.949-20.307-45.145-45.246-45.256h-25.505c-8.269 90.358-83.679 160.587-175.492 160.587s-167.223-70.229-175.441-159.898l-0.051-0.689h-71.442c-18.465 0.066-34.328 11.132-41.387 26.983l-0.115 0.289v501.476c7.173 16.141 23.037 27.206 41.493 27.272h222.141l60.474-60.474h-200.788c-37.064-0.112-67.081-30.128-67.193-67.182v-97.836c0.112-37.064 30.128-67.081 67.182-67.193h344.375c23.818 0.043 44.728 12.454 56.656 31.151l0.162 0.271 9.881-9.881v-239.325z" />
<glyph unicode="&#xd01;" glyph-name="positionnumber" horiz-adv-x="768" d="M768 575.95c0-212.057-394.687-640.050-394.687-640.050s-373.313 427.595-373.313 640.050c3.477 209.43 174.068 377.871 384 377.871s380.523-168.441 383.996-377.545l0.004-0.326z" />
<glyph unicode="&#xe01;" glyph-name="initialposition" horiz-adv-x="773" d="M386.383 960c-0.209 0-0.458 0.001-0.706 0.001-212.976 0-385.628-172.652-385.628-385.628 0-29.058 3.214-57.365 9.306-84.586l-0.483 2.571c2.643-12.175 14.534-49.926 15.761-53.324 20.809-54.134 51.418-100.3 89.998-138.414l0.038-0.038-54.834 67.858c4.53-7.173 276.527-405.825 276.527-405.825 11.019-16.038 29.259-26.421 49.925-26.426h0.001c0.012 0 0.026 0 0.040 0 20.537 0 38.676 10.265 49.566 25.944l0.131 0.199c10.853 15.855 288.702 426.494 290.023 428.947 21.443 38.347 36.712 83.146 43.107 130.757l0.213 1.938c-26.143-96.737-9.91-51.53-5.568-31.428 5.581 24.326 8.779 52.26 8.779 80.941 0 0.444-0.001 0.888-0.002 1.331v-0.069c-0.59 212.862-173.258 385.198-386.189 385.251h-0.005zM720.103 502.267c-3.869-17.743-18.121-57.665-18.876-60.307-4.247-10.004-16.422-33.315-17.554-35.392-2.454-4.247-283.983-418.566-283.983-418.566-2.866-4.102-7.565-6.751-12.883-6.751s-10.017 2.65-12.849 6.701l-0.034 0.051s-272.28 399.313-276.527 405.825v0.566c-24.724 38.57-42.022 84.257-48.695 133.321l-0.193 1.734c17.743-71.633 7.267-38.317 4.908-27.558-4.98 21.594-7.834 46.391-7.834 71.855 0 0.287 0 0.574 0.001 0.86v-0.044c-0.013 1.109-0.020 2.418-0.020 3.729 0 188.635 152.919 341.554 341.554 341.554s341.554-152.919 341.554-341.554c0-26.955-3.122-53.181-9.025-78.335l0.457 2.313zM386.383 738.212c-0.056 0-0.122 0-0.189 0-90.33 0-163.557-73.227-163.557-163.557 0 0 0 0 0 0v0c0.001-12.439 1.376-24.557 3.982-36.21l-0.207 1.102c4.338-19.505 11.647-36.74 21.525-52.173l-0.385 0.642c12.050-18.783 27.151-34.484 44.771-46.836l0.531-0.353-38.695 37.751c15.089-20.464 34.253-37.033 56.386-48.736l0.902-0.435c21.837-11.421 47.698-18.121 75.125-18.121s53.288 6.7 76.037 18.554l-0.912-0.433c31.92 16.924 57.117 42.911 72.613 74.519l0.435 0.983-15.667-26.52c11.997 16.037 21.103 34.999 26.113 55.564l0.219 1.063c-9.438-31.145-2.643-13.779 1.321 4.436 2.4 10.417 3.775 22.379 3.775 34.663 0 0.124 0 0.247 0 0.37v-0.019c0 0.056 0 0.123 0 0.19 0 90.33-73.227 163.557-163.557 163.557-0.199 0-0.398 0-0.597-0.001h0.031zM502.562 549.456c-4.355-19.44-13.055-36.401-25.051-50.466l0.135 0.162c-5.981-7.433-13.031-13.703-20.979-18.671l-0.351-0.204 26.143 25.293c-10.977-14.838-24.896-26.857-40.964-35.358l-0.657-0.317c-15.861-8.27-34.639-13.121-54.55-13.121s-38.689 4.851-55.217 13.436l0.666-0.315c-16.721 8.786-30.641 20.775-41.391 35.257l-0.23 0.324-18.026-13.213 17.932 13.402c-1.604 2.171-6.229 9.438-6.984 10.57-8.429 14.171-13.936 30.996-15.267 48.984l-0.022 0.376c0.566-8.305 0 0.472 0 9.438v0c0 65.676 53.241 118.916 118.916 118.916s118.916-53.241 118.916-118.916v0c0-0.017 0-0.038 0-0.058 0-9.041-0.997-17.849-2.887-26.32l0.15 0.801z" />
<glyph unicode="&#xe02;" glyph-name="departuretime" d="M816.333 149.914c-38.215-39.987-83.922-72.445-134.917-95.178l-2.708-1.078c-50.022-22.339-108.4-35.349-169.817-35.349-118.126 0-225.011 48.127-302.117 125.843l-0.028 0.028c-77.294 77.984-125.055 185.35-125.055 303.872s47.761 225.888 125.086 303.903l-0.031-0.031c77.069 77.83 183.947 126.021 302.080 126.021s225.011-48.191 302.046-125.987l0.034-0.034c7.404-7.361 17.609-11.911 28.877-11.911s21.473 4.55 28.879 11.913l-0.002-0.002c7.453 7.419 12.064 17.686 12.064 29.030s-4.612 21.611-12.063 29.029l-0.002 0.002c-91.765 92.627-219 149.977-359.629 149.977s-267.863-57.35-359.59-149.939l-0.038-0.039c-92.376-92.776-149.485-220.732-149.485-362.027 0-210.412 126.647-391.245 307.87-470.427l3.304-1.287c58.437-25.502 126.524-40.34 198.077-40.34 144.1 0 274.144 60.179 366.371 156.777l0.186 0.196c7.136 7.372 11.534 17.432 11.534 28.518 0 22.657-18.367 41.025-41.025 41.025-11.571 0-22.022-4.79-29.48-12.495l-0.011-0.011zM1024 446.669c-0.252 9.2-3.447 17.607-8.673 24.365l0.071-0.096-123.29 157.798c-7.568 9.515-19.145 15.561-32.134 15.561-9.502 0-18.249-3.236-25.198-8.666l0.090 0.068c-9.63-7.566-15.759-19.212-15.759-32.29 0-9.616 3.313-18.457 8.861-25.446l-0.065 0.084 71.68-92.16h-462.848c-22.622 0-40.96-18.338-40.96-40.96v0 0c0-22.622 18.338-40.96 40.96-40.96v0h462.643l-71.68-92.16c-5.483-6.904-8.796-15.746-8.796-25.361 0-13.078 6.129-24.724 15.671-32.223l0.088-0.067c6.87-5.392 15.64-8.647 25.171-8.647 13.011 0 24.605 6.067 32.108 15.525l0.065 0.085 122.88 158.31c5.519 6.776 8.926 15.466 9.113 24.945l0.001 0.041v2.355z" />
<glyph unicode="&#xe03;" glyph-name="arrivaltime" d="M205.926 150.016v0c-7.478 7.738-17.949 12.543-29.542 12.543-22.678 0-41.062-18.384-41.062-41.062 0-11.084 4.392-21.143 11.53-28.53l-0.011 0.012c92.87-95.12 222.379-154.11 365.666-154.11 282.148 0 510.874 228.726 510.874 510.874 0 209.821-126.491 390.098-307.378 468.737l-3.299 1.278c-58.545 25.55-126.759 40.417-198.446 40.417-140.895 0-268.377-57.428-360.316-150.154l-0.035-0.036c-7.453-7.419-12.064-17.686-12.064-29.030s4.612-21.611 12.063-29.029l0.002-0.002c7.409-7.391 17.635-11.962 28.928-11.962s21.519 4.57 28.929 11.963l-0.001-0.001c77.272 75.697 183.187 122.412 300.014 122.412 236.848 0 428.851-192.003 428.851-428.851 0-117.463-47.225-223.896-123.724-301.348l0.043 0.044c-77.288-77.833-184.351-126.011-302.668-126.011-121.181 0-230.558 50.54-308.203 131.691l-0.15 0.158zM629.453 446.669c-0.252 9.2-3.447 17.607-8.673 24.365l0.071-0.096-123.494 158.31c-7.545 10.114-19.478 16.594-32.924 16.594-22.622 0-40.96-18.338-40.96-40.96 0-10.051 3.62-19.256 9.628-26.383l-0.051 0.062 71.68-92.16h-463.872c-22.622 0-40.96-18.338-40.96-40.96v0 0c0-22.622 18.338-40.96 40.96-40.96v0h463.667l-71.68-92.16c-5.483-6.904-8.796-15.746-8.796-25.361 0-13.078 6.129-24.724 15.671-32.223l0.088-0.067c6.881-5.422 15.676-8.696 25.234-8.696 13.033 0 24.645 6.087 32.146 15.574l0.066 0.086 123.494 158.31c5.198 6.642 8.403 15.063 8.601 24.224l0.001 0.045v2.355z" />
<glyph unicode="&#xe04;" glyph-name="username" horiz-adv-x="889" d="M444.459 895.854c0.381 0.003 0.831 0.004 1.281 0.004 53.764 0 102.497-21.537 138.044-56.453l-0.029 0.028c35.179-34.2 57.007-81.974 57.007-134.847 0-0.206 0-0.412-0.001-0.618v0.032c-2.678-106.269-89.461-191.393-196.126-191.393s-193.448 85.124-196.121 191.145l-0.005 0.248c0 0.076 0 0.167 0 0.257 0 52.961 21.873 100.813 57.078 135.015l0.045 0.044c35.46 34.954 84.179 56.54 137.94 56.54 0.312 0 0.624-0.001 0.936-0.002h-0.048zM552.852 298.872c0.702 0.007 1.531 0.010 2.361 0.010 147.929 0 268.065-118.996 269.908-266.488l0.002-0.174v-11.706c-40.033-20.602-189.864-20.602-272.271-20.602h-216.669c-94.581 0-234.813 0-272.154 19.431v12.642c1.316 147.687 121.345 266.902 269.217 266.902 1.032 0 2.063-0.006 3.093-0.017l-0.157 0.001zM444.459 960c-139.612-2.306-251.903-116.023-251.903-255.967 0-141.385 114.615-256 256-256 141.373 0 255.981 114.597 256 255.966v0.002c-0.856 141.575-115.822 256.013-257.517 256.013-0.907 0-1.813-0.005-2.718-0.014l0.138 0.001zM552.852 363.018h-216.669c-0.803 0.007-1.753 0.011-2.704 0.011-183.198 0-331.894-147.718-333.478-330.542l-0.001-0.15v-21.421c0-74.915 150.65-74.915 336.183-74.915h216.904c185.65 0 336.183 2.809 336.183 74.681v21.421c-1.65 182.989-150.373 330.693-333.595 330.693-0.992 0-1.984-0.004-2.974-0.013l0.152 0.001z" />
<glyph unicode="&#xe05;" glyph-name="password" horiz-adv-x="884" d="M430.534 354.904h23.029c19.078 0 34.544-15.466 34.544-34.544v0-162.702c0-19.078-15.466-34.544-34.544-34.544v0h-23.029c-19.078 0-34.544 15.466-34.544 34.544v0 162.357c0 19.078 15.466 34.544 34.544 34.544v0zM814.548 471.317v-419.71c0-25.438-20.621-46.059-46.059-46.059v0h-652.191c-25.438 0-46.059 20.621-46.059 46.059v0 419.71zM884.327 541.096h-884.327v-489.604c0.456-63.692 52.194-115.148 115.95-115.148 0.163 0 0.326 0 0.488 0.001h651.59c0.138-0.001 0.3-0.001 0.463-0.001 63.756 0 115.494 51.456 115.95 115.104v489.648zM791.288 541.096h-69.779v69.894c0 154.247-125.042 279.288-279.288 279.288s-279.288-125.042-279.288-279.288v0-69.894h-69.894v69.894c-0.037 1.886-0.058 4.111-0.058 6.34 0 192.816 156.309 349.125 349.125 349.125s349.125-156.309 349.125-349.125c0-2.229-0.021-4.453-0.062-6.673l0.005 0.333v-69.894z" />
<glyph unicode="&#xe06;" glyph-name="back" d="M17.92 403.149l432.333-448.512c10.885-11.472 26.241-18.609 43.264-18.609s32.379 7.137 43.239 18.583l0.025 0.026c11.086 11.654 17.905 27.456 17.905 44.851s-6.82 33.197-17.931 44.878l0.026-0.027-389.12 403.661 389.12 403.661c11.086 11.654 17.905 27.456 17.905 44.851s-6.82 33.197-17.931 44.878l0.026-0.027c-10.885 11.472-26.241 18.609-43.264 18.609s-32.379-7.137-43.239-18.583l-0.025-0.026-432.333-448.512c-11.063-11.664-17.867-27.463-17.867-44.851s6.804-33.187 17.894-44.88l-0.027 0.029zM487.219 403.149l432.538-448.512c10.885-11.472 26.241-18.609 43.264-18.609s32.379 7.137 43.239 18.583l0.025 0.026c11.086 11.654 17.905 27.456 17.905 44.851s-6.82 33.197-17.931 44.878l0.026-0.027-389.12 403.661 389.12 403.661c11.086 11.654 17.905 27.456 17.905 44.851s-6.82 33.197-17.931 44.878l0.026-0.027c-10.885 11.472-26.241 18.609-43.264 18.609s-32.379-7.137-43.239-18.583l-0.025-0.026-432.538-448.512c-11.063-11.664-17.867-27.463-17.867-44.851s6.804-33.187 17.894-44.88l-0.027 0.029z" />
<glyph unicode="&#xe07;" glyph-name="expand" horiz-adv-x="1822" d="M990.809 927.006l798.147-798.147c21.427-20.585 34.739-49.478 34.739-81.48 0-62.368-50.559-112.927-112.927-112.927-32.002 0-60.896 13.312-81.444 34.701l-0.036 0.038-718.214 718.214-719-718.41c-20.257-19.461-47.823-31.446-78.188-31.446-62.368 0-112.927 50.559-112.927 112.927 0 30.365 11.985 57.931 31.482 78.226l-0.036-0.038 798.736 798.343c20.456 20.378 48.674 32.977 79.834 32.977s59.379-12.599 79.838-32.981l-0.004 0.004z" />
<glyph unicode="&#xe09;" glyph-name="edit" d="M0 813.261v-828.314c10.24-13.926 6.963-17.51 17.408-31.539 14.029-10.24 17.51-6.963 31.437-17.408h766.259c17.51 13.926 24.371 10.24 38.298 31.437 17.51 27.955 10.24 171.315 10.24 209.818v289.997c-17.408-7.066-24.371-20.992-34.816-31.539-48.742-45.363-30.72-27.443-30.72-167.629v-265.626l-20.48-3.482c-118.374 0-679.117-3.584-714.035 0-3.482 38.4 0 639.488 0 754.893v38.4c0 6.963 0 3.482 3.482 6.963h427.418c24.371 0 52.224 31.539 69.734 52.531 10.24 6.963 6.963 0 10.24 10.24h-466.534c-83.558 0-76.493 0-107.93-48.845zM344.781 282.010c6.963 34.918 24.371 83.866 34.714 118.784 6.963 31.437 3.584 34.918 24.371 52.429l344.883 345.907c62.771 59.699 111.616 136.397 181.146 69.939s0-111.923-69.632-181.76l-309.965-304.026c-45.363-45.363-38.298-48.845-90.522-62.874-32.054-14.27-70.373-27.425-109.977-37.337l-5.018-1.063zM1023.898 795.648v38.502c-6.963 13.926-10.24 31.539-17.408 45.466-38.298 59.392-80.077 66.355-104.448 80.384h-45.363c-20.48-10.24-38.298-13.926-59.187-27.955-24.269-17.51-334.234-328.499-383.078-377.344-17.408-17.51-76.595-69.939-83.558-87.347-10.24-31.539-41.882-146.739-59.29-195.686-6.963-20.992-20.48-52.429 0-66.355 17.408-17.51 101.069 17.408 125.44 27.955 31.334 6.963 107.93 27.955 128.922 41.882l299.52 289.997c13.926 14.029 27.853 31.539 41.779 45.466 24.371 20.89 111.514 104.858 128.922 125.338 13.926 24.474 17.51 38.4 27.853 59.392zM798.106 2.458h-731.955v796.774c-3.482-3.482-3.482 0-3.482-6.963v-38.4c0-115.302-3.482-716.8 0-754.893 34.816-3.584 595.558 0 714.035 0l20.48 3.482zM0-64h48.742c-13.926 10.24-17.408 6.963-31.437 17.408-10.24 13.926-6.963 17.51-17.408 31.539v-48.947z" />
<glyph unicode="&#xe10;" glyph-name="delete" d="M682.701 618.701h56.934v-455.066h-56.934v455.066zM540.467 163.635v455.066h-56.934v-455.066h56.934zM284.467 618.701h56.832v-455.066h-56.832v455.066zM739.533 789.402v113.664c-0.058 31.421-25.514 56.876-56.929 56.934h-341.305c-31.421-0.058-56.876-25.514-56.934-56.929v-113.772h-284.058v-56.934h113.459v-739.533c0.058-31.421 25.514-56.876 56.929-56.934h682.604c31.421 0.058 56.876 25.514 56.934 56.929v739.641h114.074v56.832h-284.774zM341.299 903.066h341.299v-113.766h-341.299v113.766zM853.299-7.168h-682.598v739.635h682.598v-739.533z" />
<glyph unicode="&#xe11;" glyph-name="clock" d="M512-64c-282.729 0.054-511.905 229.264-511.905 512 0 282.77 229.23 512 512 512s512-229.23 512-512c0-141.409-57.327-269.428-150.008-362.086l-0.001-0.001c-92.135-92.606-219.67-149.916-360.591-149.916-0.526 0-1.052 0.001-1.577 0.002h0.082zM512 866.406c-231.079 0-418.406-187.327-418.406-418.406s187.327-418.406 418.406-418.406c231.079 0 418.406 187.327 418.406 418.406v0c0.004 0.671 0.006 1.465 0.006 2.259 0 229.835-186.318 416.154-416.154 416.154-0.794 0-1.588-0.002-2.381-0.007l0.122 0.001zM558.797 420.147c0-10.689-8.665-19.354-19.354-19.354h-54.886c-10.689 0-19.354 8.665-19.354 19.354v0 281.6c0 10.689 8.665 19.354 19.354 19.354v0h54.886c10.689 0 19.354-8.665 19.354-19.354v0-281.6zM784.589 420.147c0-10.689-8.665-19.354-19.354-19.354v0h-280.678c-10.689 0-19.354 8.665-19.354 19.354v0 55.706c0 10.689 8.665 19.354 19.354 19.354v0h280.781c10.689 0 19.354-8.665 19.354-19.354v0-55.706z" />
<glyph unicode="&#xe12;" glyph-name="setting" horiz-adv-x="1084" d="M704.717-64v0c-0.134-0.001-0.293-0.001-0.452-0.001-19.965 0-37.976 8.365-50.719 21.782l-0.028 0.030c-16.896 18.534-70.349 66.56-114.074 66.56s-97.792-48.333-113.357-65.331c-12.74-13.206-30.592-21.407-50.36-21.407-0.295 0-0.591 0.002-0.885 0.005h0.045c-0.138-0.001-0.301-0.002-0.465-0.002-9.275 0-18.091 1.96-26.058 5.489l0.411-0.163-1.434 0.614-133.12 74.342-1.331 0.922c-16.187 11.74-26.593 30.594-26.593 51.878 0 9.119 1.91 17.792 5.352 25.64l-0.161-0.411c6.866 15.862 11.289 34.268 12.272 53.582l0.016 0.383c-0.058 77.851-63.154 140.947-140.999 141.005h-5.535c-22.221 0-40.448 19.763-46.182 50.381-6.159 31.329-10.246 67.936-11.343 105.294l-0.023 0.998c1.12 38.355 5.208 74.962 12.054 110.587l-0.687-4.296c5.837 30.72 24.371 51.2 47.002 50.381h4.71c0.061 0 0.133 0 0.205 0 77.859 0 140.991 63.059 141.107 140.891v0.011c-0.997 19.697-5.42 38.103-12.684 55l0.396-1.035c-3.261 7.403-5.158 16.035-5.158 25.11 0 21.327 10.482 40.205 26.574 51.765l0.19 0.13 1.331 0.922 140.39 77.107 1.434 0.614c7.478 3.238 16.187 5.121 25.335 5.121 0.129 0 0.258 0 0.387-0.001h-0.020c0.305 0.005 0.666 0.007 1.027 0.007 19.54 0 37.255-7.819 50.185-20.499l-0.012 0.011c16.589-17.408 69.12-62.669 111.616-62.669s94.31 44.339 110.899 61.44c12.918 12.665 30.63 20.482 50.167 20.482 0.183 0 0.366-0.001 0.548-0.002h-0.028c0.182 0.002 0.397 0.003 0.613 0.003 9.249 0 18.050-1.922 26.024-5.389l-0.422 0.163 1.434-0.614 135.475-75.776 1.331-0.922c16.245-11.714 26.696-30.586 26.696-51.899 0-9.112-1.91-17.777-5.352-25.618l0.16 0.41c-6.868-15.862-11.291-34.268-12.273-53.583l-0.015-0.382c0.058-77.851 63.154-140.947 140.999-141.005h4.716c22.63 0 40.96-19.354 47.002-50.381 6.16-31.329 10.247-67.936 11.343-105.293l0.023-0.998c-1.119-38.355-5.206-74.962-12.054-110.587l0.687 4.296c-5.837-30.72-24.371-51.2-47.002-50.381h-4.71c-77.744-0.058-140.772-62.978-141.005-140.675v-0.022c0.999-19.697 5.422-38.103 12.684-55.001l-0.396 1.036c3.245-7.395 5.134-16.014 5.134-25.074 0-21.332-10.47-40.218-26.552-51.801l-0.189-0.13-1.331-0.922-138.035-76.39-1.434-0.614c-7.426-3.238-16.078-5.121-25.17-5.121-0.151 0-0.302 0.001-0.454 0.002h0.023zM700.518 0.922c1.208-0.695 2.653-1.111 4.194-1.126h0.005l128.819 71.68c-10.124 23.208-16.401 50.178-17.297 78.506l-0.009 0.342c0 0.076 0 0.166 0 0.256 0 109.506 85.945 198.939 194.062 204.523l0.498 0.021c5.392 27.31 9.067 59.343 10.211 92.020l0.029 1.062c-1.173 33.738-4.848 65.772-10.864 96.971l0.624-3.889c-108.615 5.605-194.56 95.038-194.56 204.544 0 0.090 0 0.18 0 0.27v-0.014c0.904 28.67 7.182 55.64 17.852 80.265l-0.547-1.417-126.464 69.53h-0.512c-1.765-0.009-3.421-0.463-4.866-1.256l0.053 0.027c-14.137-14.128-29.457-27.076-45.798-38.681l-1.102-0.743c-39.014-27.443-75.981-40.96-109.773-40.96s-71.68 14.234-110.694 42.189c-17.495 12.552-32.883 25.73-47.066 40.102l-0.038 0.039c-1.406 0.774-3.082 1.229-4.864 1.229-0.018 0-0.036 0-0.054 0h0.003l-131.994-72.397c10.124-23.208 16.401-50.178 17.297-78.506l0.009-0.342c0-0.076 0-0.166 0-0.256 0-109.506-85.945-198.939-194.062-204.523l-0.498-0.021c-5.392-27.31-9.067-59.343-10.211-92.020l-0.029-1.062c1.174-33.739 4.849-65.773 10.865-96.972l-0.625 3.891c108.615-5.605 194.56-95.038 194.56-204.544 0-0.090 0-0.18 0-0.27v0.014c-0.929-28.716-7.242-55.718-17.956-80.365l0.548 1.415 124.211-69.427c1.499 0.004 2.909 0.383 4.143 1.047l-0.047-0.023c14.419 15.013 29.977 28.688 46.622 40.976l0.994 0.701c39.834 29.184 77.722 44.032 112.64 44.032s73.318-15.053 113.357-44.851c17.69-13.218 33.318-27.156 47.66-42.324l0.161-0.172zM539.853 260.506c-0.030 0-0.066 0-0.102 0-103.72 0-187.802 84.082-187.802 187.802s84.082 187.802 187.802 187.802c103.72 0 187.802-84.082 187.802-187.802v0c-0.117-103.673-84.129-187.685-187.79-187.802h-0.011zM539.853 572.211c-68.43 0-123.904-55.474-123.904-123.904s55.474-123.904 123.904-123.904c68.43 0 123.904 55.474 123.904 123.904v0c-0.058 68.407-55.497 123.846-123.898 123.904h-0.006z" />
<glyph unicode="&#xe13;" glyph-name="add" d="M512-64c28.277 0 51.2 22.923 51.2 51.2v0 409.6h409.6c28.277 0 51.2 22.923 51.2 51.2s-22.923 51.2-51.2 51.2v0h-409.6v409.6c0 28.277-22.923 51.2-51.2 51.2s-51.2-22.923-51.2-51.2v0-409.6h-409.6c-28.277 0-51.2-22.923-51.2-51.2s22.923-51.2 51.2-51.2v0h409.6v-409.6c0-28.277 22.923-51.2 51.2-51.2v0z" />
<glyph unicode="&#xe14;" glyph-name="export" d="M981.402 362.598c-23.583 0-42.701-19.118-42.701-42.701v0-298.701h-853.402v853.402h298.701c0.624-0.033 1.355-0.051 2.090-0.051 23.583 0 42.701 19.118 42.701 42.701s-19.118 42.701-42.701 42.701c-0.735 0-1.466-0.019-2.192-0.055l0.102 0.004h-298.701c-47.109 0-85.299-38.19-85.299-85.299v0-853.299c0-47.109 38.19-85.299 85.299-85.299v0h853.299c47.109 0 85.299 38.19 85.299 85.299v0 298.701c0 23.583-19.118 42.701-42.701 42.701v0zM1011.917 947.61s0 0.512-0.512 0.717c-7.298 7.284-17.373 11.788-28.5 11.788-0.349 0-0.696-0.004-1.043-0.013l0.051 0.001h-341.914c-0.624 0.033-1.355 0.051-2.090 0.051-23.583 0-42.701-19.118-42.701-42.701s19.118-42.701 42.701-42.701c0.735 0 1.466 0.019 2.192 0.055l-0.102-0.004h240.128l-527.053-527.36c-5.088-6.749-8.148-15.276-8.148-24.518 0-22.622 18.338-40.96 40.96-40.96 9.293 0 17.863 3.095 24.737 8.31l-0.102-0.074 528.384 528.486v-242.688c-0.033-0.624-0.051-1.355-0.051-2.090 0-23.583 19.118-42.701 42.701-42.701s42.701 19.118 42.701 42.701c0 0.735-0.019 1.466-0.055 2.192l0.004-0.102v341.299c0 0.008 0 0.018 0 0.028 0 11.785-4.774 22.454-12.493 30.18v0z" />
<glyph unicode="&#xe15;" glyph-name="search" d="M716.698 746.291c-64.376 64.375-153.31 104.192-251.543 104.192-196.468 0-355.738-159.269-355.738-355.738s159.269-355.738 355.738-355.738c98.234 0 187.168 39.817 251.544 104.192v0c64.376 64.376 104.194 153.311 104.194 251.546s-39.818 187.169-104.194 251.545v0zM136.192 165.888c-84.178 84.184-136.243 200.48-136.243 328.937 0 256.925 208.279 465.203 465.203 465.203s465.203-208.279 465.203-465.203c0-128.456-52.065-244.752-136.243-328.937v0c-84.198-84.168-200.5-136.224-328.96-136.224s-244.762 52.057-328.961 136.225l0.001-0.001zM1005.363-45.363c-11.506-11.501-27.399-18.614-44.954-18.614s-33.447 7.113-44.954 18.614v0l-89.805 89.907c-11.492 11.492-18.599 27.367-18.599 44.902 0 35.071 28.431 63.502 63.502 63.502 17.535 0 33.411-7.108 44.902-18.599v0l89.907-89.805c11.525-11.495 18.656-27.392 18.656-44.954s-7.131-33.458-18.655-44.952l-0.001-0.001z" />
<glyph unicode="&#xe900;" glyph-name="calender" horiz-adv-x="1023" d="M927.824 861.225h-95.165v44.622c0 30.466-24.698 55.164-55.164 55.164s-55.164-24.698-55.164-55.164v0-44.622h-421.673v44.622c0 30.466-24.698 55.164-55.164 55.164s-55.164-24.698-55.164-55.164v0-44.622h-95.165c-0.259 0.003-0.565 0.004-0.872 0.004-51.726 0-93.724-41.647-94.293-93.238v-738.559c0.488-51.707 42.518-93.436 94.295-93.436 0.306 0 0.612 0.001 0.917 0.004h832.612c0.259-0.003 0.565-0.004 0.872-0.004 51.726 0 93.724 41.647 94.293 93.238v738.703c-0.569 51.645-42.568 93.292-94.293 93.292-0.307 0-0.613-0.001-0.919-0.004h0.047zM940.243 29.288c-0.081-6.717-5.545-12.131-12.274-12.131-0.051 0-0.102 0-0.153 0.001h-832.651c-0.043-0.001-0.094-0.001-0.145-0.001-6.729 0-12.193 5.414-12.274 12.124v585.44h857.353v-585.865zM199.717 366.048h117.982c0.086-0.001 0.188-0.002 0.289-0.002 15.023 0 27.212 12.138 27.293 27.143v77.122c-0.481 14.697-12.51 26.428-27.279 26.428-0.106 0-0.213-0.001-0.319-0.002h-118.399c-14.713-0.073-26.669-11.776-27.148-26.383l-0.001-0.044v-76.536c0.081-15.012 12.269-27.15 27.293-27.15 0.102 0 0.203 0.001 0.305 0.002h-0.015zM452.287 366.048h118.415c0.086-0.001 0.188-0.002 0.289-0.002 15.023 0 27.212 12.138 27.293 27.143v77.122c-0.162 14.95-12.319 27.006-27.292 27.006-0.102 0-0.204-0.001-0.306-0.002h-118.399c-0.086 0.001-0.188 0.002-0.29 0.002-14.973 0-27.129-12.056-27.292-26.991v-76.551c0.081-15.012 12.269-27.15 27.293-27.15 0.102 0 0.203 0.001 0.305 0.002h-0.015zM704.857 366.048h118.27c0.086-0.001 0.188-0.002 0.289-0.002 15.023 0 27.212 12.138 27.293 27.143v77.122c-0.481 14.697-12.51 26.428-27.279 26.428-0.106 0-0.213-0.001-0.319-0.002h-118.399c-0.047 0-0.103 0-0.158 0-14.769 0-26.798-11.731-27.278-26.383l-0.001-0.044v-76.536c0.081-15.012 12.269-27.15 27.293-27.15 0.102 0 0.203 0.001 0.305 0.002h-0.015zM199.428 140.916h118.27c0.086-0.001 0.188-0.002 0.289-0.002 15.023 0 27.212 12.138 27.293 27.143v76.544c-0.162 14.95-12.319 27.006-27.292 27.006-0.102 0-0.204-0.001-0.306-0.002h-118.399c-0.086 0.001-0.188 0.002-0.29 0.002-14.973 0-27.129-12.056-27.292-26.991v-76.551c0.081-15.012 12.269-27.15 27.293-27.15 0.102 0 0.203 0.001 0.305 0.002h-0.015zM451.998 140.916h118.415c0.086-0.001 0.188-0.002 0.289-0.002 15.023 0 27.212 12.138 27.293 27.143v76.544c-0.162 14.95-12.319 27.006-27.292 27.006-0.102 0-0.204-0.001-0.306-0.002h-118.399c-0.086 0.001-0.188 0.002-0.29 0.002-14.973 0-27.129-12.056-27.292-26.991v-76.551c0.081-15.012 12.269-27.15 27.293-27.15 0.102 0 0.203 0.001 0.305 0.002h-0.015zM704.569 140.916h118.559c0.086-0.001 0.188-0.002 0.289-0.002 15.023 0 27.212 12.138 27.293 27.143v76.544c-0.162 14.95-12.319 27.006-27.292 27.006-0.102 0-0.204-0.001-0.306-0.002h-118.399c-0.086 0.001-0.188 0.002-0.29 0.002-14.973 0-27.129-12.056-27.292-26.991v-76.551c0.081-15.012 12.269-27.15 27.293-27.15 0.102 0 0.203 0.001 0.305 0.002h-0.015z" />
</font>
</defs>
</svg>
